# xmcd CD database file
#
# Track frame offsets:
#	150
#	16197
#	31002
#	48168
#	61392
#	95648
#	114996
#	142035
#	160505
#	172515
#	197084
#	224439
#	242727
#	265217
#	285201
#	298068
#
# Disc length: 4344 seconds
#
# Revision: 6
# Processed by: cddbd v1.5.2PL0 Copyright (c) Steve Scherf et al.
# Submitted via: CDex 1.51
#
DISCID=d510f610
DTITLE=Various Artist - Vol.4 - Karajan, Popular orchestral pieces
DYEAR=2008
DGENRE=Classique
TTITLE0=Handel - Water Music - V. Allegro deciso  [Berliner Philharmoniker, 1961]
TTITLE1=Johann Strauss II - Unter donner und Blitz - Polka  [Philharmonia Orchestra, 1961]
TTITLE2=J. Strauss II - An der schönen blauen Donau  [Berliner Philharmoniker, 1976]
TTITLE3=Johann Strauss I - Radetzky march  [Philharmonia Orchestra, 1961]
TTITLE4=Waldteufel - Stakers' waltz  [Philharmonia Orchestra, 1961]
TTITLE5=Berlioz - Marche hongroise (La damnation de Faust)  [Berliner Philharmoniker, 1980]
TTITLE6=Chabrier - España  [Berliner Philharmoniker, 1961]
TTITLE7=Chabrier - Marche joyeuse
TTITLE8=J. Strauss II - Trisch-Trasch - Polka  [Berliner Philharmoniker, 1976]
TTITLE9=Smetana - Ma vlast - Vltava  [Berliner Philharmoniker, 1977]
TTITLE10=Sibelius - Valse triste  [Berliner Philharmoniker, 1986]
TTITLE11=Sibelius - Karelia suite - I. Intermezzo  [Berliner Philharmoniker, 1981]
TTITLE12=Sibelius - Karelia suite - III. Alla marcia  [Berliner Philharmoniker, 1981]
TTITLE13=Bartok - Concerto for orchestra - IV. Intermezzo interrotto - Allegretto  [Berliner Philharmoniker, 1974]
TTITLE14=Respighi - The Pines of Rome - I. The Pine of th Villa Borghese  [Philharmonia Orchestra, 1958]
TTITLE15=Respighi - The pines of Rome - IV. The Pine of th Via Appia  [Philharmonia Orchestra, 1958]
EXTD=YEAR: 2008
EXTT0=
EXTT1=
EXTT2=
EXTT3=
EXTT4=
EXTT5=
EXTT6=
EXTT7=
EXTT8=
EXTT9=
EXTT10=
EXTT11=
EXTT12=
EXTT13=
EXTT14=
EXTT15=
PLAYORDER=
